<?xml version="1.0" standalone="no"?>
<!DOCTYPE svg PUBLIC "-//W3C//DTD SVG 20010904//EN"
 "http://www.w3.org/TR/2001/REC-SVG-20010904/DTD/svg10.dtd">
<svg version="1.0" xmlns="http://www.w3.org/2000/svg"
 width="2441.000000pt" height="403.000000pt" viewBox="0 0 2441.000000 403.000000"
 preserveAspectRatio="xMidYMid meet">

<g transform="translate(0.000000,403.000000) scale(0.100000,-0.100000)"
fill="#000000" stroke="none">
<path d="M6933 2653 c3 -1550 -3 -1434 87 -1618 27 -55 70 -127 97 -160 134
-164 357 -289 593 -331 120 -21 839 -31 1050 -15 526 41 831 172 982 422 86
143 98 230 100 769 2 364 0 440 -15 533 -69 419 -244 637 -585 723 -216 55
-578 71 -1127 50 -225 -9 -433 -16 -461 -16 l-51 0 -7 98 c-31 439 -241 789
-535 889 -36 12 -81 23 -99 23 l-33 0 4 -1367z m1710 -263 c404 -11 401 -10
455 -76 72 -87 89 -229 75 -649 -8 -266 -12 -315 -27 -345 -59 -114 -137 -140
-430 -140 -309 0 -939 21 -968 32 -48 18 -95 81 -120 160 -22 70 -23 86 -22
378 1 327 10 414 55 502 28 57 46 76 94 101 95 49 220 55 888 37z"/>
<path d="M1745 3950 c-543 -20 -904 -65 -1132 -141 -161 -53 -352 -190 -451
-323 -88 -119 -152 -294 -152 -415 l0 -51 1275 0 c827 0 1310 4 1373 11 424
46 745 211 900 465 63 102 112 272 112 388 l0 53 -247 6 c-417 12 -1456 16
-1678 7z"/>
<path d="M10920 3050 c-70 -4 -164 -17 -214 -29 -95 -23 -245 -89 -320 -140
-171 -118 -292 -297 -347 -514 -41 -158 -36 -858 7 -1104 78 -452 315 -632
934 -708 173 -22 719 -31 875 -16 249 25 425 51 477 71 74 27 229 120 310 186
120 97 207 235 247 392 39 150 45 299 34 757 -9 371 -13 429 -31 496 -100 374
-424 562 -1052 609 -147 11 -720 11 -920 0z m697 -660 c415 -9 469 -12 527
-30 l64 -20 16 -88 c48 -268 49 -639 0 -920 -14 -80 -19 -93 -37 -97 -187 -41
-613 -62 -939 -46 -224 11 -437 34 -468 51 -22 12 -52 88 -75 191 -26 110 -33
663 -11 768 26 123 83 172 221 190 98 12 177 12 702 1z"/>
<path d="M4780 3039 c-257 -31 -468 -106 -599 -213 -80 -66 -137 -140 -192
-251 -91 -186 -128 -393 -136 -765 -8 -386 27 -612 126 -815 132 -268 341
-396 741 -452 108 -15 195 -18 627 -16 658 2 775 17 992 124 232 114 367 319
421 637 43 247 51 777 16 974 -86 476 -342 690 -916 764 -145 19 -953 29
-1080 13z m1064 -668 c108 -24 178 -55 216 -96 l25 -27 9 -396 c9 -436 5 -508
-39 -574 -14 -21 -43 -47 -65 -58 -79 -40 -158 -44 -724 -31 -479 11 -538 15
-598 33 l-66 19 -20 77 c-17 64 -21 122 -25 344 -3 146 -2 322 3 389 12 147
38 286 55 293 18 7 260 35 390 45 61 5 252 8 425 6 278 -2 327 -5 414 -24z"/>
<path d="M88 2880 c-21 -4 -47 -15 -59 -26 -19 -17 -21 -26 -16 -99 3 -44 15
-108 27 -143 81 -232 356 -458 695 -571 225 -75 328 -83 1033 -80 511 3 602 1
706 -14 65 -10 126 -22 136 -27 31 -17 80 -162 80 -240 0 -97 -49 -178 -132
-221 -94 -48 -136 -51 -718 -50 -540 2 -696 -4 -900 -35 -369 -54 -635 -181
-776 -367 -89 -119 -139 -251 -151 -400 l-6 -78 1399 4 c1387 3 1400 3 1484
24 270 68 460 182 606 366 68 86 148 237 185 347 75 230 98 549 54 758 -94
447 -452 733 -1037 827 -54 8 -175 20 -270 25 -199 11 -2284 11 -2340 0z"/>
</g>
</svg>
